<?xml version="1.0" encoding="UTF-8"?><svg xmlns="http://www.w3.org/2000/svg" xmlns:xlink="http://www.w3.org/1999/xlink" fill-opacity="1" color-rendering="auto" color-interpolation="auto" text-rendering="auto" stroke="black" stroke-linecap="square" width="759" stroke-miterlimit="10" shape-rendering="auto" stroke-opacity="1" fill="black" stroke-dasharray="none" font-weight="normal" stroke-width="1" height="682" font-family="'Dialog'" font-style="normal" stroke-linejoin="miter" font-size="12px" stroke-dashoffset="0" image-rendering="auto">
  <!--Generated by ySVG 2.6-->
  <defs id="genericDefs"/>
  <g>
    <g fill="white" text-rendering="geometricPrecision" shape-rendering="geometricPrecision" transform="translate(623,-97)" stroke="white">
      <rect x="-623" width="759" height="682" y="97" clip-path="url(#clipPath2)" stroke="none"/>
    </g>
    <g text-rendering="geometricPrecision" shape-rendering="geometricPrecision" transform="matrix(1.4743,0,0,1.4523,214.6781,133)">
      <g clip-path="url(#clipPath3)">
        <svg xmlns:svg="http://www.w3.org/2000/svg" xmlns:sodipodi="http://sodipodi.sourceforge.net/DTD/sodipodi-0.dtd" xmlns:inkscape="http://www.inkscape.org/namespaces/inkscape" xmlns:dc="http://purl.org/dc/elements/1.1/" xmlns:cc="http://web.resource.org/cc/" xmlns:rdf="http://www.w3.org/1999/02/22-rdf-syntax-ns#" opacity="1" writing-mode="lr-tb" stop-color="rgb(0, 0, 0)" shape-rendering="auto" glyph-orientation-horizontal="0deg" color-profile="auto" lighting-color="rgb(255, 255, 255)" color="rgb(0, 0, 0)" font-weight="400" alignment-baseline="auto" font-style="normal" version="1.0" color-interpolation-filters="linearrgb" text-anchor="start" stroke-linecap="butt" color-interpolation="srgb" font-variant="normal" word-spacing="normal" fill-opacity="1" text-rendering="auto" clip-path="none" text-decoration="none" letter-spacing="normal" glyph-orientation-vertical="auto" display="inline" font-size-adjust="none" overflow="hidden" fill="rgb(0, 0, 0)" font-stretch="normal" stroke-dasharray="none" inkscape:version="0.45.1" id="svg1.svg2" stroke-miterlimit="4" stop-opacity="1" color-rendering="auto" font-size="12" sodipodi:docbase="C:\Daten\alberts\projects\yfx" pointer-events="visiblepainted" mask="none" direction="ltr" baseline-shift="baseline" sodipodi:docname="uml_actor.svg" enable-background="accumulate" fill-rule="nonzero" image-rendering="auto" stroke-dashoffset="0" inkscape:output_extension="org.inkscape.output.svg.inkscape" marker-end="none" width="41" clip="auto" cursor="auto" stroke="none" filter="none" visibility="visible" kerning="auto" stroke-width="1" font-family="&quot;Arial&quot;,&quot;Helvetica&quot;,sans-serif" flood-opacity="1" clip-rule="nonzero" src="none" height="68.997391" unicode-bidi="normal" sodipodi:version="0.32" stroke-linejoin="miter" stroke-opacity="1" flood-color="rgb(0, 0, 0)" dominant-baseline="auto" marker-start="none" marker-mid="none">
            
          <defs id="svg1.defs4">
            <clipPath clipPathUnits="userSpaceOnUse" id="clipPath1">
              <path d="M0 0 L759 0 L759 682 L0 682 L0 0 Z"/>
            </clipPath>
            <clipPath clipPathUnits="userSpaceOnUse" id="clipPath2">
              <path d="M-623 97 L136 97 L136 779 L-623 779 L-623 97 Z"/>
            </clipPath>
            <clipPath clipPathUnits="userSpaceOnUse" id="clipPath3">
              <path d="M-145.6128 -91.5783 L369.205 -91.5783 L369.205 378.0189 L-145.6128 378.0189 L-145.6128 -91.5783 Z"/>
            </clipPath>
          </defs>
            
  
          <metadata id="svg1.metadata7">
    
  </metadata>
            
          <g inkscape:groupmode="layer" id="svg1.layer1" transform="translate(-29.5,-42.959476)" inkscape:label="Ebene 1">
                
            <a id="svg1.a3142" transform="matrix(1.0873906,0,0,1,-4.4741999,0)">
                    
              <path transform="translate(11.586889,5.2908993)" style="fill:none;fill-rule:evenodd;stroke:#000000;stroke-width:1px;stroke-linecap:butt;stroke-linejoin:miter;stroke-opacity:1" sodipodi:cx="38.509369" sodipodi:cy="47.36993" sodipodi:rx="8.5197716" id="svg1.path2160" d="M 47.02914 47.36993 A 8.5197716 9.2013531 0 1 1  29.989597,47.36993 A 8.5197716 9.2013531 0 1 1  47.02914 47.36993 z" sodipodi:ry="9.2013531" sodipodi:type="arc"/>
                  
            </a>
                
            <path style="fill:none" sodipodi:cx="43.962021" sodipodi:cy="48.392303" d="M 47.71072 48.392303 A 3.7486994 0 0 1 1  40.213321,48.392303 A 3.7486994 0 0 1 1  47.71072 48.392303 z" id="svg1.path3134" sodipodi:rx="3.7486994" sodipodi:ry="0" sodipodi:type="arc"/>
                
            <path style="fill:none;fill-rule:evenodd;stroke:#000000;stroke-width:1.24319649px;stroke-linecap:butt;stroke-linejoin:miter;stroke-opacity:1" d="M 50,61.33709 C 50,91.363211 50,92.247838 50,92.247838" id="svg1.path3136"/>
                
            <path style="fill:none;fill-rule:evenodd;stroke:#000000;stroke-width:1px;stroke-linecap:butt;stroke-linejoin:miter;stroke-opacity:1" d="M 69.760668,72.362183 C 69.760668,72.362183 69.760668,72.362183 50.239332,72.362183 C 30.239332,72.362183 30.239332,72.362183 30.239332,72.362183 L 30.239332,72.362183" id="svg1.path3138"/>
                
            <path style="fill:none;fill-rule:evenodd;stroke:#000000;stroke-width:1px;stroke-linecap:butt;stroke-linejoin:miter;stroke-opacity:1" d="M 30,111.45687 C 30,111.45687 30,111.45687 50,92.013532 C 70,111.45687 70,111.45687 70,111.45687" id="svg1.path3140"/>
              
          </g>
          
        </svg>
      </g>
    </g>
    <g font-size="13px" stroke-linecap="butt" transform="matrix(1,0,0,1,623,-97)" text-rendering="geometricPrecision" font-family="sans-serif" shape-rendering="geometricPrecision" stroke-miterlimit="1.45">
      <text x="-453.4231" xml:space="preserve" y="349.0698" clip-path="url(#clipPath2)" stroke="none">Администратор фабрики</text>
    </g>
    <g fill="rgb(255,204,0)" text-rendering="geometricPrecision" shape-rendering="geometricPrecision" transform="matrix(1,0,0,1,623,-97)" stroke="rgb(255,204,0)">
      <ellipse rx="69.375" ry="25" clip-path="url(#clipPath2)" cx="-184.9736" cy="376.25" stroke="none"/>
    </g>
    <g font-size="13px" stroke-linecap="butt" transform="matrix(1,0,0,1,623,-97)" text-rendering="geometricPrecision" font-family="sans-serif" shape-rendering="geometricPrecision" stroke-miterlimit="1.45">
      <text x="-235.5645" xml:space="preserve" y="373.3936" clip-path="url(#clipPath2)" stroke="none">просмотр списка</text>
      <text x="-209.8818" xml:space="preserve" y="389.3198" clip-path="url(#clipPath2)" stroke="none"> заказов</text>
      <ellipse rx="69.375" fill="none" ry="25" clip-path="url(#clipPath2)" cx="-184.9736" cy="376.25"/>
    </g>
    <g fill="rgb(255,204,0)" text-rendering="geometricPrecision" shape-rendering="geometricPrecision" transform="matrix(1,0,0,1,623,-97)" stroke="rgb(255,204,0)">
      <ellipse rx="63.75" ry="25" clip-path="url(#clipPath2)" cx="-31.8486" cy="503.625" stroke="none"/>
    </g>
    <g font-size="13px" stroke-linecap="butt" transform="matrix(1,0,0,1,623,-97)" text-rendering="geometricPrecision" font-family="sans-serif" shape-rendering="geometricPrecision" stroke-miterlimit="1.45">
      <text x="-85.6799" xml:space="preserve" y="500.7686" clip-path="url(#clipPath2)" stroke="none">Просмотр сроков </text>
      <text x="-58.7532" xml:space="preserve" y="516.6948" clip-path="url(#clipPath2)" stroke="none">поставки</text>
      <ellipse rx="63.75" fill="none" ry="25" clip-path="url(#clipPath2)" cx="-31.8486" cy="503.625"/>
    </g>
    <g fill="rgb(255,204,0)" text-rendering="geometricPrecision" shape-rendering="geometricPrecision" transform="matrix(1,0,0,1,623,-97)" stroke="rgb(255,204,0)">
      <ellipse rx="76.875" ry="39.25" clip-path="url(#clipPath2)" cx="-265.5986" cy="503.625" stroke="none"/>
    </g>
    <g font-size="13px" stroke-linecap="butt" transform="matrix(1,0,0,1,623,-97)" text-rendering="geometricPrecision" font-family="sans-serif" shape-rendering="geometricPrecision" stroke-miterlimit="1.45">
      <text x="-335.3276" xml:space="preserve" y="500.7686" clip-path="url(#clipPath2)" stroke="none">Просмотр конкретного </text>
      <text x="-285.2478" xml:space="preserve" y="516.6948" clip-path="url(#clipPath2)" stroke="none">заказа</text>
      <ellipse rx="76.875" fill="none" ry="39.25" clip-path="url(#clipPath2)" cx="-265.5986" cy="503.625"/>
    </g>
    <g fill="rgb(255,204,0)" text-rendering="geometricPrecision" shape-rendering="geometricPrecision" transform="matrix(1,0,0,1,623,-97)" stroke="rgb(255,204,0)">
      <ellipse rx="69.375" ry="40" clip-path="url(#clipPath2)" cx="50.6514" cy="408.625" stroke="none"/>
    </g>
    <g font-size="13px" stroke-linecap="butt" transform="matrix(1,0,0,1,623,-97)" text-rendering="geometricPrecision" font-family="sans-serif" shape-rendering="geometricPrecision" stroke-miterlimit="1.45">
      <text x="5.675" xml:space="preserve" y="405.7686" clip-path="url(#clipPath2)" stroke="none">сортировка по </text>
      <text x="0.5334" xml:space="preserve" y="421.6948" clip-path="url(#clipPath2)" stroke="none">срокам поставки</text>
      <ellipse rx="69.375" fill="none" ry="40" clip-path="url(#clipPath2)" cx="50.6514" cy="408.625"/>
    </g>
    <g fill="rgb(255,204,0)" text-rendering="geometricPrecision" shape-rendering="geometricPrecision" transform="matrix(1,0,0,1,623,-97)" stroke="rgb(255,204,0)">
      <ellipse rx="55" ry="25" clip-path="url(#clipPath2)" cx="25.9639" cy="305" stroke="none"/>
    </g>
    <g font-size="13px" stroke-linecap="butt" transform="matrix(1,0,0,1,623,-97)" text-rendering="geometricPrecision" font-family="sans-serif" shape-rendering="geometricPrecision" stroke-miterlimit="1.45">
      <text x="-10.0718" xml:space="preserve" y="302.1436" clip-path="url(#clipPath2)" stroke="none">сортировка </text>
      <text x="-1.6484" xml:space="preserve" y="318.0698" clip-path="url(#clipPath2)" stroke="none">по цехам</text>
      <ellipse rx="55" fill="none" ry="25" clip-path="url(#clipPath2)" cx="25.9639" cy="305"/>
    </g>
    <g fill="rgb(255,204,0)" text-rendering="geometricPrecision" shape-rendering="geometricPrecision" transform="matrix(1,0,0,1,623,-97)" stroke="rgb(255,204,0)">
      <ellipse rx="55" ry="25" clip-path="url(#clipPath2)" cx="-84.0361" cy="236.6875" stroke="none"/>
    </g>
    <g font-size="13px" stroke-linecap="butt" transform="matrix(1,0,0,1,623,-97)" text-rendering="geometricPrecision" font-family="sans-serif" shape-rendering="geometricPrecision" stroke-miterlimit="1.45">
      <text x="-118.5071" xml:space="preserve" y="233.8311" clip-path="url(#clipPath2)" stroke="none">поиск по id </text>
      <text x="-105.0564" xml:space="preserve" y="249.7573" clip-path="url(#clipPath2)" stroke="none">задачи</text>
      <ellipse rx="55" fill="none" ry="25" clip-path="url(#clipPath2)" cx="-84.0361" cy="236.6875"/>
    </g>
    <g fill="rgb(255,204,0)" text-rendering="geometricPrecision" shape-rendering="geometricPrecision" transform="matrix(1,0,0,1,623,-97)" stroke="rgb(255,204,0)">
      <ellipse rx="95" ry="36.875" clip-path="url(#clipPath2)" cx="-31.8486" cy="619.1934" stroke="none"/>
    </g>
    <g font-size="13px" stroke-linecap="butt" transform="matrix(1,0,0,1,623,-97)" text-rendering="geometricPrecision" font-family="sans-serif" shape-rendering="geometricPrecision" stroke-miterlimit="1.45">
      <text x="-113.6287" xml:space="preserve" y="616.337" clip-path="url(#clipPath2)" stroke="none">Просмотр цеха, где сейчас</text>
      <text x="-101.3936" xml:space="preserve" y="632.2632" clip-path="url(#clipPath2)" stroke="none"> работают над заказом</text>
      <ellipse rx="95" fill="none" ry="36.875" clip-path="url(#clipPath2)" cx="-31.8486" cy="619.1934"/>
    </g>
    <g fill="rgb(255,204,0)" text-rendering="geometricPrecision" shape-rendering="geometricPrecision" transform="matrix(1,0,0,1,623,-97)" stroke="rgb(255,204,0)">
      <ellipse rx="88.75" ry="43.125" clip-path="url(#clipPath2)" cx="-124.3486" cy="720.375" stroke="none"/>
    </g>
    <g font-size="13px" stroke-linecap="butt" transform="matrix(1,0,0,1,623,-97)" text-rendering="geometricPrecision" font-family="sans-serif" shape-rendering="geometricPrecision" stroke-miterlimit="1.45">
      <text x="-210.2388" xml:space="preserve" y="717.5186" clip-path="url(#clipPath2)" stroke="none">просмотр сроков окончания </text>
      <text x="-192.9128" xml:space="preserve" y="733.4448" clip-path="url(#clipPath2)" stroke="none">работы в теущем цехе</text>
      <ellipse rx="88.75" fill="none" ry="43.125" clip-path="url(#clipPath2)" cx="-124.3486" cy="720.375"/>
    </g>
    <g fill="rgb(255,204,0)" text-rendering="geometricPrecision" shape-rendering="geometricPrecision" transform="matrix(1,0,0,1,623,-97)" stroke="rgb(255,204,0)">
      <ellipse rx="69.375" ry="25" clip-path="url(#clipPath2)" cx="-265.5986" cy="137.375" stroke="none"/>
    </g>
    <g font-size="13px" stroke-linecap="butt" transform="matrix(1,0,0,1,623,-97)" text-rendering="geometricPrecision" font-family="sans-serif" shape-rendering="geometricPrecision" stroke-miterlimit="1.45">
      <text x="-323.4956" xml:space="preserve" y="142.4817" clip-path="url(#clipPath2)" stroke="none">добавление заказа</text>
      <ellipse rx="69.375" fill="none" ry="25" clip-path="url(#clipPath2)" cx="-265.5986" cy="137.375"/>
    </g>
    <g fill="rgb(255,204,0)" text-rendering="geometricPrecision" shape-rendering="geometricPrecision" transform="matrix(1,0,0,1,623,-97)" stroke="rgb(255,204,0)">
      <ellipse rx="63.75" ry="29.375" clip-path="url(#clipPath2)" cx="-265.5986" cy="646.2217" stroke="none"/>
    </g>
    <g font-size="13px" stroke-linecap="butt" transform="matrix(1,0,0,1,623,-97)" text-rendering="geometricPrecision" font-family="sans-serif" shape-rendering="geometricPrecision" stroke-miterlimit="1.45">
      <text x="-319.7886" xml:space="preserve" y="651.3284" clip-path="url(#clipPath2)" stroke="none">изменение заказа</text>
      <ellipse rx="63.75" fill="none" ry="29.375" clip-path="url(#clipPath2)" cx="-265.5986" cy="646.2217"/>
    </g>
    <g fill="rgb(255,204,0)" text-rendering="geometricPrecision" shape-rendering="geometricPrecision" transform="matrix(1,0,0,1,623,-97)" stroke="rgb(255,204,0)">
      <ellipse rx="55" ry="25" clip-path="url(#clipPath2)" cx="-384.3486" cy="688.7217" stroke="none"/>
    </g>
    <g font-size="13px" stroke-linecap="butt" transform="matrix(1,0,0,1,623,-97)" text-rendering="geometricPrecision" font-family="sans-serif" shape-rendering="geometricPrecision" stroke-miterlimit="1.45">
      <text x="-435.5837" xml:space="preserve" y="693.8284" clip-path="url(#clipPath2)" stroke="none">Удаление заказа</text>
      <ellipse rx="55" fill="none" ry="25" clip-path="url(#clipPath2)" cx="-384.3486" cy="688.7217"/>
    </g>
    <g fill="rgb(255,204,0)" text-rendering="geometricPrecision" shape-rendering="geometricPrecision" transform="matrix(1,0,0,1,623,-97)" stroke="rgb(255,204,0)">
      <ellipse rx="76.875" ry="39.25" clip-path="url(#clipPath2)" cx="-523.3285" cy="720.375" stroke="none"/>
    </g>
    <g font-size="13px" stroke-linecap="butt" transform="matrix(1,0,0,1,623,-97)" text-rendering="geometricPrecision" font-family="sans-serif" shape-rendering="geometricPrecision" stroke-miterlimit="1.45">
      <text x="-578.5245" xml:space="preserve" y="717.5186" clip-path="url(#clipPath2)" stroke="none">Установка этапов </text>
      <text x="-585.234" xml:space="preserve" y="733.4448" clip-path="url(#clipPath2)" stroke="none">выполнения заказов</text>
      <ellipse rx="76.875" fill="none" ry="39.25" clip-path="url(#clipPath2)" cx="-523.3285" cy="720.375"/>
    </g>
    <g fill="rgb(255,204,0)" text-rendering="geometricPrecision" shape-rendering="geometricPrecision" transform="matrix(1,0,0,1,623,-97)" stroke="rgb(255,204,0)">
      <ellipse rx="76.875" ry="39.25" clip-path="url(#clipPath2)" cx="-481.2236" cy="594.4717" stroke="none"/>
    </g>
    <g font-size="13px" stroke-linecap="butt" transform="matrix(1,0,0,1,623,-97)" text-rendering="geometricPrecision" font-family="sans-serif" shape-rendering="geometricPrecision" stroke-miterlimit="1.45">
      <text x="-539.1079" xml:space="preserve" y="591.6152" clip-path="url(#clipPath2)" stroke="none">Изменение этапов </text>
      <text x="-543.1292" xml:space="preserve" y="607.5415" clip-path="url(#clipPath2)" stroke="none">выполнения заказов</text>
      <ellipse rx="76.875" fill="none" ry="39.25" clip-path="url(#clipPath2)" cx="-481.2236" cy="594.4717"/>
    </g>
    <g fill="rgb(255,204,0)" text-rendering="geometricPrecision" shape-rendering="geometricPrecision" transform="matrix(1,0,0,1,623,-97)" stroke="rgb(255,204,0)">
      <ellipse rx="95" ry="32.125" clip-path="url(#clipPath2)" cx="-512.25" cy="510.75" stroke="none"/>
    </g>
    <g font-size="13px" stroke-linecap="butt" transform="matrix(1,0,0,1,623,-97)" text-rendering="geometricPrecision" font-family="sans-serif" shape-rendering="geometricPrecision" stroke-miterlimit="1.45">
      <text x="-563.4788" xml:space="preserve" y="507.8936" clip-path="url(#clipPath2)" stroke="none">Смена текущего </text>
      <text x="-589.5518" xml:space="preserve" y="523.8198" clip-path="url(#clipPath2)" stroke="none">этапа выполнения заказа</text>
      <ellipse rx="95" fill="none" ry="32.125" clip-path="url(#clipPath2)" cx="-512.25" cy="510.75"/>
      <path fill="none" d="M-348.0879 294.9568 L-225.623 355.9911" clip-path="url(#clipPath2)"/>
      <path fill="none" stroke-dasharray="6,2" d="M-157.3962 399.1899 L-65.1834 475.8959" clip-path="url(#clipPath2)"/>
      <path stroke-dasharray="6,2" d="M-59.0331 481.0119 L-65.0611 469.4939 L-65.9522 475.2563 L-71.4561 477.1818 Z" clip-path="url(#clipPath2)" stroke="none"/>
      <text x="-65.9909" xml:space="preserve" font-size="12px" y="460.2753" clip-path="url(#clipPath2)" stroke="none">"include"</text>
      <path fill="none" d="M-241.9583 466.2769 L-208.4242 413.2983" clip-path="url(#clipPath2)"/>
    </g>
    <g stroke-linecap="butt" transform="matrix(1,0,0,1,623,-97)" fill="white" text-rendering="geometricPrecision" shape-rendering="geometricPrecision" stroke="white" stroke-miterlimit="1.45">
      <path d="M-200.4017 400.624 L-214.0288 410.9343 L-203.8893 417.3523 Z" stroke="none" clip-path="url(#clipPath2)"/>
      <path fill="none" d="M-200.4017 400.624 L-214.0288 410.9343 L-203.8893 417.3523 Z" clip-path="url(#clipPath2)" stroke="black"/>
      <path fill="none" stroke-dasharray="6,2" d="M-16.8339 399.3525 L-112.2252 386.2457" clip-path="url(#clipPath2)" stroke="black"/>
      <path fill="black" stroke-dasharray="6,2" d="M-120.1508 385.1567 L-108.943 391.7436 L-111.2345 386.3818 L-107.5818 381.8367 Z" clip-path="url(#clipPath2)" stroke="none"/>
      <text x="-89.4355" y="366.8695" clip-path="url(#clipPath2)" fill="black" font-family="sans-serif" stroke="none" xml:space="preserve">"extend"</text>
      <path fill="none" stroke-dasharray="6,2" d="M-18.1817 319.9114 L-126.7785 356.593" clip-path="url(#clipPath2)" stroke="black"/>
      <path fill="black" stroke-dasharray="6,2" d="M-134.3578 359.1531 L-121.3887 360.05 L-125.8311 356.2729 L-124.5889 350.5758 Z" clip-path="url(#clipPath2)" stroke="none"/>
      <text x="-114.0292" y="317.8114" clip-path="url(#clipPath2)" fill="black" font-family="sans-serif" stroke="none" xml:space="preserve">"extend"</text>
      <path fill="none" stroke-dasharray="6,2" d="M-101.2128 260.4371 L-162.7888 345.5758" clip-path="url(#clipPath2)" stroke="black"/>
      <path fill="black" stroke-dasharray="6,2" d="M-167.4771 352.0581 L-156.3932 345.2649 L-162.2028 344.7656 L-164.4961 339.4045 Z" clip-path="url(#clipPath2)" stroke="none"/>
      <text x="-192.635" y="309.5674" clip-path="url(#clipPath2)" fill="black" font-family="sans-serif" stroke="none" xml:space="preserve">"extend"</text>
      <path fill="none" stroke-dasharray="6,2" d="M-169.6077 400.6291 L-58.6905 576.6069" clip-path="url(#clipPath2)" stroke="black"/>
      <path fill="black" stroke-dasharray="6,2" d="M-54.4248 583.3748 L-56.5934 570.557 L-59.2237 575.761 L-65.0532 575.8891 Z" clip-path="url(#clipPath2)" stroke="none"/>
      <text x="-122.8709" y="572.6817" clip-path="url(#clipPath2)" fill="black" font-family="sans-serif" stroke="none" xml:space="preserve">"include"</text>
      <path fill="none" stroke-dasharray="6,2" d="M-180.5782 401.1998 L-133.3063 669.5285" clip-path="url(#clipPath2)" stroke="black"/>
      <path fill="black" stroke-dasharray="6,2" d="M-131.9183 677.4072 L-129.0762 664.7217 L-133.4798 668.5436 L-138.9245 666.4567 Z" clip-path="url(#clipPath2)" stroke="none"/>
      <text x="-195.4599" y="626.4587" clip-path="url(#clipPath2)" fill="black" font-family="sans-serif" stroke="none" xml:space="preserve">"include"</text>
      <path fill="none" d="M-257.2224 162.1921 L-198.1468 337.2206" clip-path="url(#clipPath2)" stroke="black"/>
      <path d="M-193.3499 351.4329 L-192.7817 334.3543 L-204.1515 338.1919 Z" clip-path="url(#clipPath2)" stroke="none"/>
      <path fill="none" d="M-193.3499 351.4329 L-192.7817 334.3543 L-204.1515 338.1919 Z" clip-path="url(#clipPath2)" stroke="black"/>
      <path fill="none" d="M-265.5986 616.8467 L-265.5986 557.875" clip-path="url(#clipPath2)" stroke="black"/>
      <path d="M-265.5986 542.875 L-271.5986 558.875 L-259.5986 558.875 Z" clip-path="url(#clipPath2)" stroke="none"/>
      <path fill="none" d="M-265.5986 542.875 L-271.5986 558.875 L-259.5986 558.875 Z" clip-path="url(#clipPath2)" stroke="black"/>
      <path fill="none" d="M-368.9511 664.7214 L-297.6284 553.55" clip-path="url(#clipPath2)" stroke="black"/>
      <path d="M-289.5287 540.9249 L-303.2184 551.1519 L-293.1183 557.6317 Z" clip-path="url(#clipPath2)" stroke="none"/>
      <path fill="none" d="M-289.5287 540.9249 L-303.2184 551.1519 L-293.1183 557.6317 Z" clip-path="url(#clipPath2)" stroke="black"/>
      <path fill="none" d="M-483.4341 686.824 L-316.973 546.8306" clip-path="url(#clipPath2)" stroke="black"/>
      <path d="M-305.493 537.176 L-321.6001 542.8823 L-313.8764 552.0662 Z" clip-path="url(#clipPath2)" stroke="none"/>
      <path fill="none" d="M-305.493 537.176 L-321.6001 542.8823 L-313.8764 552.0662 Z" clip-path="url(#clipPath2)" stroke="black"/>
      <path fill="none" d="M-421.9299 569.4902 L-338.7155 534.4305" clip-path="url(#clipPath2)" stroke="black"/>
      <path d="M-324.8923 528.6065 L-341.9667 529.2895 L-337.3075 540.348 Z" clip-path="url(#clipPath2)" stroke="none"/>
      <path fill="none" d="M-324.8923 528.6065 L-341.9667 529.2895 L-337.3075 540.348 Z" clip-path="url(#clipPath2)" stroke="black"/>
      <path fill="none" d="M-417.5947 508.0157 L-357.3446 506.2753" clip-path="url(#clipPath2)" stroke="black"/>
      <path d="M-342.3509 505.8421 L-358.5175 500.3066 L-358.171 512.3016 Z" clip-path="url(#clipPath2)" stroke="none"/>
      <path fill="none" d="M-342.3509 505.8421 L-358.5175 500.3066 L-358.171 512.3016 Z" clip-path="url(#clipPath2)" stroke="black"/>
    </g>
  </g>
</svg>
